# xmcd
#
# Track frame offsets:
#	150
#	14059
#	28889
#	42126
#	56242
#	73009
#	86804
#	103287
#	115928
#
# Disc length: 1837 seconds
#
# Revision: 1
# Processed by: cddbd v1.5.2PL0 Copyright (c) Steve Scherf et al.
# Submitted via: audiograbber 1.83.01
#
DISCID=84072b09
DTITLE=Lee Greenwood - Proud To Be An American
DYEAR=1994
DGENRE=Country
TTITLE0=Dixie Road
TTITLE1=God Bless The USA
TTITLE2=Hearts Aren't Made To Break
TTITLE3=I.O.U.
TTITLE4=Ring On Her Finger(Time On Her Hands)
TTITLE5=Amazing Grace
TTITLE6=Somebody's Gonna Love You
TTITLE7=Touch And Go Crazy
TTITLE8=How Great Thou Art
EXTD=
EXTT0=
EXTT1=
EXTT2=
EXTT3=
EXTT4=
EXTT5=
EXTT6=
EXTT7=
EXTT8=
PLAYORDER=
